<svg height="128" width="128" xmlns="http://www.w3.org/2000/svg" xmlns:xlink="http://www.w3.org/1999/xlink"><radialGradient id="a" cx="99.157013" cy="186.17059" gradientTransform="matrix(.6869404 0 0 .21461693 -4.02174 68.573331)" gradientUnits="userSpaceOnUse" r="62.769119"><stop offset="0" stop-color="#3d3d3d"/><stop offset=".5" stop-color="#686868" stop-opacity=".498039"/><stop offset="1" stop-color="#686868" stop-opacity="0"/></radialGradient><linearGradient id="b" gradientTransform="matrix(2.756758 0 0 2.7567581 -133.25196 -3.403753)" gradientUnits="userSpaceOnUse" x1="71.204407" x2="71.204407" y1="6.237558" y2="44.340794"><stop offset="0" stop-color="#fff"/><stop offset=".507761" stop-color="#fff" stop-opacity=".235294"/><stop offset=".83456558" stop-color="#fff" stop-opacity=".156863"/><stop offset="1" stop-color="#fff" stop-opacity=".392157"/></linearGradient><linearGradient id="c" gradientTransform="matrix(3.9856242 0 0 2.9796372 -8061.4657 -9541.5191)" gradientUnits="userSpaceOnUse" x1="2035.1652" x2="2035.1652" y1="3208.0737" y2="3241.9966"><stop offset="0" stop-color="#64baff"/><stop offset="1" stop-color="#3689e6"/></linearGradient><path d="m107.21186 108.52868a43.118644 13.471312 0 1 1 -86.237286 0 43.118644 13.471312 0 1 1 86.237286 0z" fill="url(#a)"/><path d="m64.500014 14.499989c-28.691832 0-52.000014 23.308185-52.000014 52.000006 0 28.691823 23.308182 52.000005 52.000014 52.000005 28.691789 0 52.000026-23.308182 51.999986-52.000004 0-28.691821-23.308197-52.000007-51.999986-52.000007z" fill="url(#c)" opacity=".99"/><path d="m115.5 66.498172c0 28.167477-22.835193 51.001848-50.99938 51.001848-28.166783 0-51.000617-22.834639-51.000617-51.001848 0-28.166134 22.833834-50.998201 51.000617-50.998201 28.164187 0 50.99938 22.832067 50.99938 50.998201z" fill="none" opacity=".5" stroke="url(#b)" stroke-linecap="round" stroke-linejoin="round"/><path d="m64.50001 14.499989c-28.691808 0-52.00001 23.308195-52.00001 52.000003 0 28.691807 23.308202 52.000008 52.00001 52.000008 28.691804 0 52.00002-23.308201 51.99999-52.000008 0-28.691808-23.308186-52.000004-51.99999-52.000003z" fill="none" opacity=".5" stroke="#002e99" stroke-linecap="round" stroke-linejoin="round"/><path d="m64.369141 32c-4.989054 0-9.060547 4.060182-9.060547 9.041016 0 4.98083 4.071493 9.041015 9.060547 9.041015 4.989055 0 9.0625-4.059879 9.0625-9.041015 0-4.981139-4.073446-9.041016-9.0625-9.041016zm-29.144532 16.966797c-.535529.0089-1.002771.191261-1.429687.396484-1.010965.485983-1.886249 1.484499-1.902344 2.75a1.0371928 1.0371928 0 0 0 0 .002c-.01536 1.303603.813877 2.379696 1.878906 2.923828a1.0371928 1.0371928 0 0 0 .175782.07031l20.615234 6.171831-.136719 14.585938-7.292969 23.09375a1.0371928 1.0371928 0 0 0 -.0098.0332c-.419967 1.500039-.248771 2.931039.546875 4.015629.67267.91695 1.835534 1.10306 2.75.90625.914465-.19682 1.751283-.70089 2.300781-1.50196a1.0371928 1.0371928 0 0 0 .07813-.13281l11.22464-23.146481 11.007812 23.095704a1.0371928 1.0371928 0 0 0 .04102.0801c.933379 1.58764 2.999398 2.12771 4.611328 1.23242.84491-.46927 1.332308-1.3046 1.478515-2.10547.146208-.80087.02165-1.585456-.234375-2.28125l.01758.04883-7.253906-23.201172-.273437-13.708984 20.949219-7.283203a1.0371928 1.0371928 0 0 0 .24414-.123047c1.2629-.860791 1.823353-2.487544 1.259766-3.931641-.26093-.668606-.745506-1.237838-1.357422-1.527343-.587415-.277914-1.209846-.294964-1.826172-.234376-.519579-.03241-1.048892-.02-1.603516.15625l.167963-.039084-27.261719 3.882812-27.115234-3.939453.121094.02344c-.740683-.200112-1.235446-.321392-1.771485-.3125z" fill="#002e99" opacity=".05"/><path d="m72.393895 41.041051c0 4.418438-3.594869 8.00442-8.024261 8.00442-4.429391 0-8.024259-3.585982-8.024259-8.00442 0-4.418441 3.594868-8.004423 8.024259-8.004423 4.429392 0 8.024261 3.585982 8.024261 8.004423zm19.005048 9.299369-27.409807 3.901605-27.262181-3.960404c-1.437336-.388329-1.695544-.360696-2.482995.01784-.787452.378537-1.303681.973884-1.314539 1.827633-.01006.853866.536877 1.590236 1.314539 1.98755l21.362578 6.397952-.146121 15.51882-7.338417 23.242187c-.363893 1.299757-.221488 2.296877.384666 3.123157.767569 1.04632 2.633329.49068 3.359404-.5678l12.164801-25.08767 11.935172 25.04432c.645369 1.09775 2.083975 1.47908 3.21332.85182 1.129345-.62725 1.180576-2.02552.776637-3.123274l-7.298346-23.342178-.292073-14.609919 21.662326-7.530561c.875245-.596566 1.255479-1.725959.87639-2.69731-.379119-.971456-1.117016-1.235-2.179093-1.117291-.380356-.03074-.994636.01814-1.326261.123523z" fill="#002e99" opacity=".15"/><path d="m72.393895 40.040616c0 4.418438-3.594869 8.00442-8.024261 8.00442-4.429391 0-8.024259-3.585982-8.024259-8.00442 0-4.418441 3.594868-8.004423 8.024259-8.004423 4.429392 0 8.024261 3.585982 8.024261 8.004423zm19.005048 9.299369-27.409807 3.901605-27.262181-3.960404c-1.437336-.388329-1.695544-.360696-2.482995.01784-.787452.378537-1.303681.973884-1.314539 1.827633-.01006.853866.536877 1.590236 1.314539 1.98755l21.362578 6.397952-.146121 15.51882-7.338417 23.242187c-.363893 1.299759-.221488 2.296872.384666 3.123152.767569 1.04632 2.633329.49068 3.359404-.5678l12.164801-25.087665 11.935172 25.044315c.645369 1.09775 2.083975 1.47908 3.21332.85182 1.129345-.62725 1.180576-2.025518.776637-3.123269l-7.298346-23.342178-.292073-14.609919 21.662326-7.530561c.875245-.596566 1.255479-1.725959.87639-2.69731-.379119-.971456-1.117016-1.235-2.179093-1.117291-.380356-.03074-.994636.01814-1.326261.123523z" fill="#fff"/></svg>