<svg fill="none" height="54" viewBox="0 0 54 54" width="54" xmlns="http://www.w3.org/2000/svg"><circle cx="27" cy="27" fill="#007aff" r="27"/><path clip-rule="evenodd" d="m26.01 29.271v8.731c0 .8701 1.0343 1.3251 1.6757.7371l6-5.5c.4324-.3963.4324-1.0779 0-1.4743l-5.1958-4.7628 5.1958-4.7629c.4324-.3963.4324-1.0779 0-1.4743l-6-5.5c-.6414-.5879-1.6757-.1329-1.6757.7372v8.7309l-4.8743-4.4681c-.4071-.3732-1.0397-.3457-1.4128.0614-.3732.4072-.3457 1.0397.0614 1.4129l5.7413 5.2629-5.7413 5.2628c-.4071.3732-.4346 1.0058-.0614 1.4129.3731.4071 1.0057.4346 1.4128.0614zm2-4.5423 3.5201-3.2267-3.5201-3.2268zm3.5201 7.7733-3.5201 3.2267v-6.4535z" fill="#fff" fill-rule="evenodd"/></svg>